<?xml version="1.0" encoding="UTF-8" standalone="no"?>
<!-- Created with Inkscape (http://www.inkscape.org/) -->

<svg
   width="70mm"
   height="70mm"
   viewBox="0 0 70 70"
   version="1.1"
   id="svg1"
   inkscape:version="1.3 (0e150ed6c4, 2023-07-21)"
   sodipodi:docname="logo.svg"
   inkscape:export-filename="logo.png"
   inkscape:export-xdpi="181.42857"
   inkscape:export-ydpi="181.42857"
   xmlns:inkscape="http://www.inkscape.org/namespaces/inkscape"
   xmlns:sodipodi="http://sodipodi.sourceforge.net/DTD/sodipodi-0.dtd"
   xmlns:xlink="http://www.w3.org/1999/xlink"
   xmlns="http://www.w3.org/2000/svg"
   xmlns:svg="http://www.w3.org/2000/svg">
  <sodipodi:namedview
     id="namedview1"
     pagecolor="#ffffff"
     bordercolor="#000000"
     borderopacity="0.25"
     inkscape:showpageshadow="2"
     inkscape:pageopacity="0.0"
     inkscape:pagecheckerboard="0"
     inkscape:deskcolor="#d1d1d1"
     inkscape:document-units="mm"
     inkscape:zoom="1.6863847"
     inkscape:cx="396.70664"
     inkscape:cy="561.25984"
     inkscape:window-width="3840"
     inkscape:window-height="2089"
     inkscape:window-x="-8"
     inkscape:window-y="-8"
     inkscape:window-maximized="1"
     inkscape:current-layer="layer1" />
  <defs
     id="defs1">
    <linearGradient
       inkscape:collect="always"
       xlink:href="#linearGradient5"
       id="linearGradient6"
       x1="-608.12982"
       y1="1505.7341"
       x2="-437.35767"
       y2="1238.691"
       gradientUnits="userSpaceOnUse"
       gradientTransform="matrix(0.20622925,-0.05184553,0.05184516,0.20623071,71.230297,-278.12797)" />
    <linearGradient
       id="linearGradient5"
       inkscape:collect="always">
      <stop
         style="stop-color:#fc6600;stop-opacity:1;"
         offset="0.31208053"
         id="stop5" />
      <stop
         style="stop-color:#fc6600;stop-opacity:0;"
         offset="1"
         id="stop6" />
    </linearGradient>
  </defs>
  <g
     inkscape:label="Layer 1"
     inkscape:groupmode="layer"
     id="layer1">
    <g
       id="g1"
       transform="translate(5.5751815,1.542)">
      <path
         id="path5-86"
         style="fill:url(#linearGradient6);fill-opacity:1;stroke-width:1.05046"
         d="M 37.808786,0.86479925 A 28.882922,28.883128 0 0 0 16.839332,35.918357 28.882922,28.883128 0 0 0 51.892547,56.887467 28.882922,28.883128 0 0 0 58.774897,54.128341 28.882922,28.883128 0 0 1 31.090603,32.335625 28.882922,28.883128 0 0 1 45.254487,0.00321425 a 28.882922,28.883128 0 0 0 -7.445701,0.861585 z"
         inkscape:transform-center-x="21.377402"
         inkscape:transform-center-y="-25.558606" />
      <path
         id="path4-6"
         style="fill:#fc6600;fill-opacity:1;stroke-width:1.50523"
         d="M 9.80767,10.67407 A 32.917045,32.91728 0 0 0 0,33.998403 32.917045,32.91728 0 0 0 32.916855,66.916 32.917045,32.91728 0 0 0 58.849637,54.144078 32.917045,32.91728 0 0 1 35.740455,63.737894 32.917045,32.91728 0 0 1 2.823085,30.820276 32.917045,32.91728 0 0 1 9.80767,10.67407 Z" />
    </g>
  </g>
</svg>
